<svg width="250" height="250" viewBox="0 0 250 250" fill="none" xmlns="http://www.w3.org/2000/svg">
<rect width="250" height="250" rx="30" fill="#007BFF" fill-opacity="0.65"/>
<path d="M57.557 170C52.0103 170 47.1463 168.763 42.965 166.288C38.7837 163.813 35.541 160.528 33.237 156.432C30.933 152.336 29.781 147.813 29.781 142.864V80.4H51.285V144.4C51.285 146.448 52.0103 148.24 53.461 149.776C54.9117 151.312 56.7037 152.08 58.837 152.08H82.517V170H57.557ZM155.912 171.536C150.707 171.536 145.928 170.384 141.576 168.08C137.309 165.776 133.896 162.576 131.336 158.48C128.861 154.384 127.624 149.52 127.624 143.888V104.848C127.624 103.483 127.283 102.245 126.6 101.136C125.917 100.027 125.021 99.1307 123.912 98.448C122.803 97.7653 121.565 97.424 120.2 97.424C118.835 97.424 117.597 97.7653 116.488 98.448C115.379 99.1307 114.483 100.027 113.8 101.136C113.203 102.245 112.904 103.483 112.904 104.848V170H91.912V106.384C91.912 101.008 93.1067 96.272 95.496 92.176C97.9707 88.08 101.341 84.8373 105.608 82.448C109.96 80.0587 114.824 78.864 120.2 78.864C125.661 78.864 130.525 80.0587 134.792 82.448C139.059 84.8373 142.429 88.08 144.904 92.176C147.379 96.272 148.616 101.008 148.616 106.384V145.424C148.616 146.875 148.957 148.155 149.64 149.264C150.323 150.373 151.176 151.269 152.2 151.952C153.309 152.549 154.504 152.848 155.784 152.848C157.149 152.848 158.387 152.549 159.496 151.952C160.691 151.269 161.629 150.373 162.312 149.264C162.995 148.155 163.336 146.875 163.336 145.424V106.384C163.336 101.008 164.573 96.272 167.048 92.176C169.523 88.08 172.893 84.8373 177.16 82.448C181.512 80.0587 186.333 78.864 191.624 78.864C197.085 78.864 201.907 80.0587 206.088 82.448C210.355 84.8373 213.725 88.08 216.2 92.176C218.675 96.272 219.912 101.008 219.912 106.384V170H198.92V104.72C198.92 103.355 198.579 102.16 197.896 101.136C197.299 100.027 196.445 99.1307 195.336 98.448C194.227 97.7653 192.989 97.424 191.624 97.424C190.344 97.424 189.107 97.7653 187.912 98.448C186.803 99.1307 185.907 100.027 185.224 101.136C184.541 102.16 184.2 103.355 184.2 104.72V143.888C184.2 149.52 182.92 154.384 180.36 158.48C177.8 162.576 174.387 165.776 170.12 168.08C165.853 170.384 161.117 171.536 155.912 171.536Z" fill="white"/>
</svg>
